<?xml version="1.0" encoding="utf-8"?>
<!-- Generator: Adobe Illustrator 17.0.0, SVG Export Plug-In . SVG Version: 6.00 Build 0)  -->
<!DOCTYPE svg PUBLIC "-//W3C//DTD SVG 1.1//EN" "http://www.w3.org/Graphics/SVG/1.1/DTD/svg11.dtd">
<svg version="1.1" id="Layer_1" xmlns="http://www.w3.org/2000/svg" xmlns:xlink="http://www.w3.org/1999/xlink" x="0px" y="0px"
	 width="100px" height="100px" viewBox="0 0 100 100" style="enable-background:new 0 0 100 100;" xml:space="preserve">
<style type="text/css">
	.st0{fill:#0171B9;}
	.st1{fill:#25AAE2;}
	.st2{fill:none;}
	.st3{fill:#FEFFF9;}
	.st4{fill:#E7E7E9;}
</style>
<g>
	<polygon class="st0" points="92.4,1 84.5,87.5 50.1,98 50,98 15.6,87.5 7.7,1 	"/>
	<polygon class="st1" points="49.7,9 50.1,89.9 78.1,83.1 85.6,9 	"/>
	<polygon class="st2" points="24.9,40 48.2,29.9 23.9,30.1 	"/>
	<polygon class="st2" points="37.4,57 38.3,64.8 50,67.4 62,63.6 62.9,50 25.9,50 26.4,57 	"/>
	<polygon class="st2" points="73.4,39 73.6,37.5 74.3,29.1 49.7,39 	"/>
	<polygon class="st3" points="71.6,58.6 72.6,48.4 72.6,47.4 73.4,39 49.7,39 24.9,39 25.9,50 62.9,50 62,63.6 50,67.1 38.3,64.8 
		37.4,57 26.4,57 28,72.4 49.7,78.9 70.2,73.5 71,64.5 	"/>
	<polygon class="st4" points="74.3,29.5 74.4,29.4 48.2,29.8 24.9,39.3 24.9,39 49.7,39 	"/>
	<polygon class="st3" points="74.4,27.2 75,19.5 75,20 22.9,20 23.9,30.5 48.2,30.1 74.3,29.9 	"/>
</g>
</svg>
